<svg width="48" height="48" viewBox="0 0 48 48" fill="none" xmlns="http://www.w3.org/2000/svg">
<rect x="0.5" y="0.5" width="47" height="47" rx="13.5" stroke="#00AA7E"/>
<g clip-path="url(#clip0_2917_7029)">
<path fill-rule="evenodd" clip-rule="evenodd" d="M27.5153 9.69048C32.9694 11.9841 36.8227 17.5806 36.8227 24.1211C36.8227 30.99 32.5758 36.8135 26.6824 38.8705C26.3564 38.984 26.4409 39.2254 26.8031 39.1916C34.2128 38.4987 40.0072 31.9799 40.0072 24.0439C40.0072 16.4145 34.6522 10.0985 27.6698 9.00239C27.2111 8.94686 27.0349 9.50699 27.5153 9.69048Z" fill="#39AA7C"/>
<path fill-rule="evenodd" clip-rule="evenodd" d="M31.5231 15.1397C31.5051 15.115 31.4786 15.0978 31.4487 15.0916C31.4188 15.0853 31.3877 15.0904 31.3613 15.1059C30.7529 15.4632 27.5925 17.4647 25.8083 23.0588C23.9855 28.8098 27.1555 35.7149 27.6046 36.6492C27.1362 35.8791 24.3645 31.6008 20.7092 31.5404C17.0538 31.4801 14.3135 34.6453 12.2903 34.3966C12.2722 34.3955 12.2542 34.4001 12.2388 34.4097C12.2234 34.4193 12.2114 34.4335 12.2044 34.4502C12.1975 34.467 12.196 34.4855 12.2002 34.5032C12.2043 34.5209 12.2139 34.5368 12.2275 34.5487C14.251 36.5888 16.8979 37.8944 19.7481 38.2583C22.5983 38.6222 25.4884 38.0236 27.9595 36.5575C31.1096 34.6617 33.3877 31.6031 34.302 28.042C34.914 25.8268 34.9809 23.4963 34.497 21.2496C34.0131 19.0029 32.9928 16.9066 31.5231 15.1397V15.1397Z" fill="#A03AC1"/>
<g style="mix-blend-mode:multiply">
<path fill-rule="evenodd" clip-rule="evenodd" d="M24.2655 15.4873C24.2429 15.4756 24.2171 15.4713 24.1919 15.4748C24.1667 15.4784 24.1431 15.4897 24.1246 15.5072C24.106 15.5247 24.0934 15.5475 24.0884 15.5725C24.0833 15.5974 24.0862 15.6234 24.0965 15.6467C25.5451 18.8457 23.505 23.1312 23.6812 26.7238C23.8937 31.0358 25.7866 33.5589 26.5785 34.9157C26.5664 34.8964 24.6615 31.5115 21.8029 30.1136C18.1499 28.3293 15.1537 28.7615 14.4511 28.8895C14.4325 28.8934 14.4149 28.9013 14.3997 28.9128C14.3844 28.9242 14.3719 28.9388 14.3629 28.9556C14.3539 28.9724 14.3488 28.991 14.3477 29.01C14.3467 29.029 14.3498 29.0481 14.357 29.0657C14.5984 29.7152 15.5134 32.2044 18.6859 34.7371C22.2205 37.5595 25.3689 37.9578 27.6191 36.6492C27.6191 36.6492 32.9307 32.8104 33.2131 26.6972C33.5729 19.1451 25.5838 16.1803 24.2655 15.4873Z" fill="#CA69DE"/>
</g>
<path fill-rule="evenodd" clip-rule="evenodd" d="M16.6796 37.4653C17.7528 37.8899 18.8784 38.1677 20.0259 38.291C18.8701 38.1631 17.7394 37.8661 16.6699 37.4098C16.6722 37.4285 16.6754 37.447 16.6796 37.4653V37.4653Z" fill="#46BC8C"/>
<path fill-rule="evenodd" clip-rule="evenodd" d="M29.5699 14.8138C29.6915 14.7224 29.7907 14.6046 29.8601 14.4692C29.9295 14.3339 29.9672 14.1846 29.9705 14.0325C29.9737 13.8804 29.9424 13.7296 29.8789 13.5914C29.8153 13.4533 29.7212 13.3313 29.6037 13.2348C27.1631 11.21 24.0616 10.1561 20.8927 10.2748C14.0914 10.5355 8.4756 16.2431 8.03135 23.3679C7.89994 25.294 8.15686 27.2268 8.78685 29.0517C9.41685 30.8766 10.4071 32.5563 11.6988 33.9911C11.7082 34.0001 11.7207 34.0051 11.7338 34.0051C11.7468 34.0051 11.7594 34.0001 11.7688 33.9911C11.7775 33.981 11.7822 33.9682 11.7822 33.9549C11.7822 33.9416 11.7775 33.9287 11.7688 33.9187V33.9187C9.70209 31.4464 8.76049 28.1435 8.97296 24.5461C9.34477 18.1891 14.1976 12.974 20.2553 12.438C23.209 12.1738 26.1551 13.0209 28.5172 14.8138C28.6695 14.9267 28.854 14.9876 29.0436 14.9876C29.2331 14.9876 29.4176 14.9267 29.5699 14.8138V14.8138Z" fill="#46BC8C"/>
</g>
<defs>
<clipPath id="clip0_2917_7029">
<rect width="32" height="30.1941" fill="white" transform="translate(8 9)"/>
</clipPath>
</defs>
</svg>
