<svg width="32" height="32" viewBox="0 0 32 32" fill="none" xmlns="http://www.w3.org/2000/svg">
<path d="M16 32C24.8366 32 32 24.8366 32 16C32 7.16344 24.8366 0 16 0C7.16344 0 0 7.16344 0 16C0 24.8366 7.16344 32 16 32Z" fill="#00AA7E"/>
<path fill-rule="evenodd" clip-rule="evenodd" d="M7.24251 15.8319C11.9068 13.7997 15.0171 12.46 16.5734 11.8127C21.0167 9.96457 21.94 9.64353 22.5418 9.63293C22.6742 9.63059 22.9701 9.6634 23.1618 9.81895C23.3237 9.95029 23.3682 10.1277 23.3895 10.2522C23.4108 10.3768 23.4374 10.6605 23.4163 10.8821C23.1755 13.4121 22.1336 19.5517 21.6036 22.3853C21.3793 23.5843 20.9376 23.9863 20.5101 24.0257C19.581 24.1112 18.8754 23.4116 17.9755 22.8217C16.5673 21.8986 15.7717 21.324 14.4048 20.4232C12.8251 19.3822 13.8492 18.8101 14.7494 17.875C14.985 17.6303 19.0789 13.9066 19.1581 13.5688C19.168 13.5266 19.1772 13.3691 19.0837 13.2859C18.9901 13.2028 18.852 13.2312 18.7524 13.2538C18.6112 13.2859 16.3615 14.7728 12.0035 17.7146C11.365 18.1531 10.7866 18.3667 10.2684 18.3555C9.69709 18.3432 8.59817 18.0325 7.78124 17.767C6.77924 17.4413 5.98287 17.2691 6.05221 16.7159C6.08833 16.4278 6.4851 16.1331 7.24251 15.8319Z" fill="white"/>
</svg>
