<svg width="137" height="46" viewBox="0 0 137 46" fill="none" xmlns="http://www.w3.org/2000/svg">
<path d="M130.191 42.4009H7.27465C4.72645 42.4009 2.64404 40.3185 2.64404 37.7703V7.84947C2.64404 5.30127 4.72645 3.21887 7.27465 3.21887H130.191C132.739 3.21887 134.89 5.30127 134.89 7.84947V37.7703C134.904 40.3048 132.739 42.4009 130.191 42.4009Z" fill="#A6A6A6"/>
<path d="M133.959 37.7586C133.959 39.8273 132.273 41.5124 130.205 41.5124H7.27469C5.19229 41.5124 3.50719 39.8273 3.50719 37.7586V7.83778C3.50719 5.76908 5.19229 4.08398 7.27469 4.08398H130.191C132.273 4.08398 133.945 5.76908 133.945 7.83778V37.7586H133.959Z" fill="black"/>
<path d="M94.5026 22.4254C94.5848 22.6857 94.6533 22.9597 94.7355 23.22C94.7629 23.3296 94.7903 23.4529 94.8314 23.5625C94.8725 23.6721 94.8862 23.8091 94.9136 23.9187C94.941 24.042 94.9684 24.1516 94.9821 24.2749C94.9958 24.3845 95.0232 24.4941 95.0232 24.59C95.0232 24.6174 95.0232 24.6585 95.0369 24.6996C95.0369 24.7407 95.0369 24.7818 95.0369 24.8366C95.0369 25.0832 94.9958 25.3298 94.9273 25.5627C94.8588 25.7956 94.7492 26.0285 94.6259 26.234C94.5026 26.4532 94.3382 26.6587 94.1601 26.8505C93.982 27.056 93.7902 27.2341 93.571 27.4122C93.3655 27.5903 93.1326 27.741 92.8997 27.8917C92.6668 28.0424 92.4339 28.1794 92.1873 28.289L91.8174 27.5355C92.1188 27.3848 92.4065 27.2067 92.6942 27.0149C92.9819 26.8231 93.2285 26.6039 93.4477 26.371C93.6669 26.1381 93.845 25.8915 93.982 25.6312C94.119 25.3709 94.1875 25.0969 94.1875 24.8229C94.1875 24.8092 94.1875 24.7818 94.1875 24.7544C94.1875 24.727 94.1875 24.6859 94.1738 24.6585C94.1601 24.5763 94.1464 24.4667 94.1327 24.3708C94.119 24.2612 94.0916 24.1516 94.0642 24.042C94.0368 23.9324 94.0094 23.8228 93.982 23.7132C93.9546 23.6036 93.9272 23.494 93.8998 23.3981C93.8313 23.1515 93.7628 22.9186 93.6806 22.672L94.5026 22.4254ZM94.7081 20.6718L94.0094 21.3705L93.297 20.6581L93.9957 19.9594L94.7081 20.6718Z" fill="white"/>
<path d="M96.5302 25.2074C96.5713 24.5498 96.5987 23.9333 96.6124 23.3579C96.6261 22.7825 96.6261 22.2345 96.6124 21.7413C96.5987 21.2481 96.585 20.8097 96.5576 20.4124C96.5302 20.0151 96.5028 19.6863 96.4754 19.4123C96.448 19.1383 96.4343 18.9191 96.4069 18.7684C96.3932 18.6177 96.3795 18.5355 96.3795 18.5355L97.2289 18.4122C97.2289 18.4259 97.2563 18.604 97.2974 18.9328C97.3111 19.0972 97.3385 19.2753 97.3522 19.4671C97.3659 19.6589 97.3796 19.8644 97.3933 20.0836C97.407 20.3028 97.4207 20.5083 97.4344 20.7001C97.4481 20.8919 97.4481 21.0837 97.4618 21.2618C97.4755 21.7961 97.4892 22.3852 97.4755 23.0565C97.4755 23.7278 97.4481 24.4539 97.3933 25.2485L96.5302 25.2074Z" fill="white"/>
<path d="M108.257 24.5084C108.148 24.3714 108.052 24.2207 107.983 24.0426C107.23 24.8372 106.024 25.2345 104.394 25.2345C103.517 25.2345 102.805 25.1249 102.229 24.9194C101.654 24.7139 101.243 24.3988 100.983 23.9604C100.901 23.8234 100.832 23.6727 100.791 23.522C100.75 23.3713 100.722 23.2206 100.709 23.0699C100.695 22.9192 100.695 22.7822 100.709 22.6315C100.722 22.4945 100.75 22.3575 100.777 22.2205C100.818 22.0835 100.846 21.9602 100.887 21.8506C100.928 21.741 100.955 21.6451 100.983 21.5629C101.01 21.4807 101.037 21.4259 101.065 21.3711C101.092 21.33 101.106 21.3026 101.106 21.2889L101.846 21.6999C101.846 21.6999 101.832 21.7273 101.805 21.7821C101.777 21.8369 101.75 21.9054 101.723 22.0013C101.695 22.0835 101.654 22.1931 101.627 22.3164C101.599 22.4397 101.572 22.563 101.572 22.6863C101.558 22.8096 101.572 22.9466 101.599 23.0836C101.627 23.2206 101.668 23.3439 101.736 23.4672C101.914 23.7549 102.216 23.9741 102.668 24.1248C103.12 24.2755 103.695 24.344 104.394 24.344C105.024 24.344 105.572 24.2892 106.011 24.1796C106.449 24.07 106.819 23.8919 107.12 23.659C107.257 23.5494 107.367 23.4398 107.463 23.3165C107.559 23.1932 107.641 23.0699 107.709 22.9329C107.778 22.7959 107.833 22.6726 107.874 22.5356C107.915 22.3986 107.956 22.2753 107.997 22.1383L108.819 22.3575C108.805 22.4123 108.792 22.4808 108.778 22.5493C108.764 22.6178 108.737 22.7 108.723 22.7822C108.682 22.9466 108.668 23.0973 108.682 23.2069C108.682 23.3302 108.709 23.4535 108.737 23.5905C108.764 23.7275 108.833 23.8508 108.915 23.9467C109.121 24.207 109.463 24.3303 109.943 24.3303C110.066 24.3303 110.162 24.3714 110.244 24.4536C110.326 24.5358 110.367 24.6317 110.367 24.755C110.367 24.8783 110.326 24.9742 110.244 25.0564C110.162 25.1386 110.066 25.1797 109.943 25.1797H109.901C109.162 25.2071 108.614 24.9742 108.257 24.5084ZM104.558 20.9875L103.86 21.6862L103.147 20.9875L103.846 20.2888L104.558 20.9875ZM106.326 20.9875L105.627 21.6862L104.915 20.9738L105.613 20.2751L106.326 20.9875Z" fill="white"/>
<path d="M109.573 24.7959C109.573 24.6726 109.614 24.5767 109.696 24.4945C109.778 24.4123 109.888 24.3712 109.997 24.3712C110.312 24.3712 110.614 24.3575 110.874 24.3301C111.148 24.3027 111.381 24.2616 111.587 24.2068C111.792 24.1657 111.97 24.1109 112.121 24.0424C112.272 23.9876 112.381 23.9328 112.45 23.878C112.491 23.8506 112.518 23.8232 112.546 23.7958C112.573 23.7684 112.587 23.741 112.614 23.7136H112.176C112.025 23.7136 111.874 23.6999 111.724 23.6725C111.573 23.6451 111.436 23.6177 111.313 23.5629C111.189 23.5081 111.066 23.4533 110.956 23.3848C110.847 23.3163 110.765 23.2341 110.682 23.1382C110.641 23.0834 110.6 23.0286 110.559 22.9464C110.518 22.8779 110.491 22.782 110.463 22.6861C110.436 22.5902 110.422 22.4806 110.422 22.3573C110.422 22.234 110.422 22.1107 110.449 21.96C110.491 21.7408 110.545 21.5353 110.628 21.3572C110.71 21.1791 110.806 21.0147 110.915 20.864C111.039 20.6996 111.189 20.5626 111.354 20.4804C111.518 20.3982 111.682 20.3571 111.847 20.3571C112.23 20.3571 112.573 20.5215 112.874 20.864C113.011 21.0147 113.121 21.1791 113.231 21.3709C113.326 21.5627 113.409 21.7682 113.477 21.9874C113.546 22.2066 113.587 22.4395 113.6 22.6724C113.628 22.9053 113.628 23.1382 113.6 23.3711C113.587 23.4807 113.559 23.604 113.532 23.7136C113.518 23.7547 113.505 23.7958 113.491 23.8506C113.477 23.9054 113.45 23.9739 113.409 24.0424C113.368 24.1109 113.313 24.1931 113.244 24.2753C113.176 24.3575 113.094 24.4397 112.984 24.5219C112.847 24.6315 112.669 24.7274 112.463 24.8096C112.258 24.8918 112.025 24.9603 111.765 25.0151C111.504 25.0699 111.23 25.111 110.943 25.1384C110.655 25.1658 110.354 25.1795 110.066 25.1795H109.997C109.874 25.1795 109.778 25.1384 109.696 25.0562C109.627 25.0151 109.573 24.9192 109.573 24.7959ZM112.436 18.8912L111.737 19.5899L111.025 18.8775L111.724 18.1788L112.436 18.8912ZM111.847 21.2202C111.806 21.2202 111.765 21.2339 111.71 21.275C111.655 21.3161 111.6 21.3709 111.545 21.4531C111.491 21.5353 111.436 21.6312 111.395 21.7408C111.354 21.8504 111.313 21.9874 111.285 22.1244C111.244 22.3436 111.271 22.4943 111.354 22.6039C111.408 22.6724 111.491 22.7272 111.6 22.7683C111.71 22.8094 111.847 22.8368 111.998 22.8505C112.148 22.8505 112.285 22.8642 112.409 22.8642C112.532 22.8642 112.641 22.8642 112.737 22.8505C112.724 22.5765 112.669 22.3025 112.573 22.0559C112.491 21.8093 112.367 21.6038 112.217 21.4394C112.176 21.3846 112.107 21.3435 112.039 21.2887C112.011 21.2476 111.943 21.2202 111.847 21.2202Z" fill="white"/>
<path d="M116.779 25.2219C116.464 25.2219 116.19 25.1808 115.97 25.1123C115.751 25.0438 115.559 24.9205 115.395 24.7698C115.299 24.6739 115.231 24.578 115.176 24.4684C115.121 24.3588 115.094 24.2492 115.066 24.1396C115.039 24.03 115.025 23.9341 115.025 23.8382C115.025 23.7423 115.025 23.6601 115.025 23.5916V23.5094C115.025 23.5094 115.025 23.4546 115.025 23.3587C115.025 23.2628 115.025 23.1258 115.025 22.9477C115.025 22.7696 115.025 22.5778 115.025 22.3449C115.025 22.1257 115.025 21.8791 115.025 21.6325C115.025 21.3859 115.025 21.1256 115.011 20.8653C115.011 20.5913 114.998 20.3447 114.984 20.0844C114.97 19.8378 114.957 19.6049 114.943 19.3994C114.929 19.1939 114.902 19.0158 114.874 18.8788L115.724 18.7281C115.751 18.8788 115.779 19.0569 115.792 19.2624C115.806 19.4816 115.833 19.7008 115.847 19.9611C115.861 20.2077 115.875 20.468 115.875 20.742C115.875 21.016 115.888 21.2763 115.888 21.5366C115.888 21.7832 115.888 22.0298 115.888 22.2627C115.888 22.4956 115.888 22.7011 115.888 22.8792C115.888 23.0573 115.888 23.208 115.888 23.3313C115.888 23.4546 115.888 23.5231 115.888 23.5368V23.619C115.888 23.7423 115.888 23.8519 115.902 23.9478C115.916 24.0437 115.957 24.1259 116.025 24.1807C116.149 24.3177 116.395 24.3862 116.751 24.3862H116.792C116.847 24.3862 116.902 24.3999 116.957 24.4273C117.012 24.4547 117.053 24.4821 117.094 24.5232C117.135 24.5643 117.162 24.6054 117.19 24.6602C117.217 24.715 117.231 24.7698 117.231 24.8246C117.231 24.9479 117.19 25.0438 117.108 25.126C117.039 25.2082 116.902 25.2219 116.779 25.2219Z" fill="white"/>
<path d="M116.135 24.7964C116.135 24.6731 116.176 24.5772 116.258 24.495C116.34 24.4128 116.436 24.3717 116.56 24.3717H117.039C117.135 24.3717 117.245 24.3717 117.368 24.3717C117.491 24.3717 117.601 24.358 117.724 24.358C117.847 24.358 117.957 24.3306 118.08 24.3032C118.19 24.2758 118.299 24.2484 118.395 24.2073C118.491 24.1662 118.573 24.1251 118.656 24.0566C118.724 24.0018 118.779 23.9333 118.82 23.8511C118.875 23.7278 118.889 23.5497 118.875 23.3305C118.847 23.0976 118.793 22.8373 118.697 22.5359C118.669 22.44 118.628 22.3441 118.587 22.2345C118.546 22.1249 118.505 22.029 118.464 21.9331C118.423 21.8235 118.368 21.7139 118.327 21.6043L119.094 21.2207C119.094 21.2207 119.108 21.2481 119.135 21.3029C119.163 21.3577 119.19 21.4399 119.231 21.5221C119.272 21.618 119.313 21.7276 119.368 21.8509C119.423 21.9742 119.464 22.1112 119.505 22.2482C119.779 23.0702 119.806 23.7141 119.601 24.1799C119.395 24.6457 119.039 24.9471 118.519 25.0978C118.436 25.1252 118.341 25.1389 118.217 25.1526C118.094 25.1663 117.971 25.18 117.847 25.18C117.724 25.18 117.601 25.1937 117.491 25.1937C117.382 25.1937 117.286 25.1937 117.231 25.1937H116.601H116.56C116.436 25.1937 116.34 25.1526 116.258 25.0704C116.162 25.0156 116.135 24.9197 116.135 24.7964ZM118.204 26.7007L117.505 27.3994L116.792 26.7007L117.491 26.002L118.204 26.7007ZM119.985 26.7144L119.286 27.4131L118.573 26.7007L119.272 26.002L119.985 26.7144Z" fill="white"/>
<path d="M122.642 22.4279C122.725 22.6882 122.793 22.9622 122.875 23.2225C122.903 23.3321 122.93 23.4554 122.971 23.565C123.012 23.6746 123.026 23.8116 123.053 23.9212C123.081 24.0445 123.108 24.1541 123.122 24.2774C123.136 24.387 123.163 24.4966 123.163 24.5925C123.163 24.6199 123.163 24.661 123.177 24.7021C123.177 24.7432 123.177 24.7843 123.177 24.8391C123.177 25.0857 123.136 25.3323 123.067 25.5652C122.999 25.7981 122.889 26.031 122.766 26.2365C122.642 26.4557 122.478 26.6612 122.3 26.853C122.122 27.0585 121.93 27.2366 121.711 27.4147C121.505 27.5928 121.272 27.7435 121.039 27.8942C120.807 28.0449 120.574 28.1819 120.327 28.2915L119.957 27.538C120.259 27.3873 120.546 27.2092 120.834 27.0174C121.122 26.8256 121.368 26.6064 121.587 26.3735C121.807 26.1406 121.985 25.894 122.122 25.6337C122.259 25.3734 122.327 25.0994 122.327 24.8254C122.327 24.8117 122.327 24.7843 122.327 24.7569C122.327 24.7295 122.327 24.6884 122.314 24.661C122.3 24.5788 122.286 24.4692 122.272 24.3733C122.259 24.2637 122.231 24.1541 122.204 24.0445C122.177 23.9349 122.149 23.8253 122.122 23.7157C122.094 23.6061 122.067 23.4965 122.04 23.4006C121.971 23.154 121.903 22.9211 121.82 22.6745L122.642 22.4279Z" fill="white"/>
<path d="M126.054 25.2071C125.917 25.2071 125.752 25.1934 125.561 25.1523C125.369 25.1112 125.191 25.0701 124.999 25.0153C124.807 24.9605 124.643 24.9057 124.492 24.8372C124.341 24.7687 124.218 24.7002 124.149 24.6317L124.506 23.8234C124.615 23.8919 124.739 23.9604 124.889 24.0289C125.04 24.0974 125.191 24.1522 125.369 24.1933C125.533 24.2344 125.711 24.2755 125.889 24.3029C126.067 24.3303 126.246 24.3303 126.41 24.3166C126.574 24.3029 126.725 24.2618 126.876 24.207C127.013 24.1522 127.136 24.0563 127.232 23.9467C127.314 23.8645 127.314 23.6864 127.259 23.4535C127.232 23.3165 127.177 23.1658 127.109 23.0151C127.04 22.8644 126.958 22.7137 126.848 22.5493C126.752 22.3986 126.643 22.2479 126.52 22.0972C126.396 21.9465 126.273 21.8095 126.136 21.6862C125.999 21.5629 125.876 21.4533 125.739 21.3574C125.602 21.2615 125.465 21.1793 125.341 21.1245L125.684 20.3436C125.848 20.4258 126.026 20.5217 126.191 20.645C126.369 20.7683 126.533 20.9053 126.698 21.056C126.862 21.2067 127.013 21.3848 127.163 21.5629C127.314 21.741 127.451 21.9328 127.561 22.1246C127.684 22.3164 127.78 22.5082 127.876 22.7C127.958 22.8918 128.027 23.0836 128.068 23.2617C128.109 23.4261 128.122 23.5631 128.122 23.7001C128.122 23.8234 128.109 23.9467 128.081 24.0426C128.054 24.1385 128.027 24.2344 127.985 24.3029C127.944 24.3851 127.903 24.4399 127.862 24.4947C127.602 24.8098 127.232 25.029 126.752 25.1249C126.643 25.1523 126.533 25.1797 126.41 25.1797C126.3 25.2071 126.163 25.2071 126.054 25.2071Z" fill="white"/>
<path d="M45.2786 20.5621C45.6622 20.5621 45.991 20.4251 46.265 20.1511C46.3472 20.0689 46.4157 19.973 46.4705 19.8908C46.5253 19.9867 46.5938 20.0689 46.6623 20.1511C46.9363 20.4251 47.2514 20.5621 47.635 20.5621C48.0186 20.5621 48.3474 20.4251 48.6077 20.1511C48.8817 19.8771 49.005 19.5483 49.005 19.1647C49.005 18.7811 48.868 18.4523 48.6077 18.192C48.3474 17.9317 48.0186 17.7947 47.635 17.7947C47.2514 17.7947 46.9226 17.9317 46.6623 18.192C46.5801 18.2742 46.5116 18.3564 46.4705 18.4523C46.4157 18.3564 46.3472 18.2742 46.265 18.192C45.991 17.918 45.6622 17.7947 45.2786 17.7947C44.9087 17.7947 44.5662 17.9317 44.3059 18.2057C44.0456 18.4797 43.8949 18.7948 43.8949 19.1784C43.8949 19.562 44.0319 19.8908 44.2922 20.1648C44.5662 20.4251 44.895 20.5621 45.2786 20.5621Z" fill="white"/>
<path d="M73.4047 18.2029C73.0759 18.2029 72.8019 18.3125 72.5964 18.5591C72.3772 18.792 72.2676 19.0797 72.2676 19.4085C72.2676 19.6414 72.3361 19.9976 72.4457 20.4634C72.5553 20.9155 72.6238 21.2717 72.6238 21.5183C72.6238 22.354 72.021 22.7787 70.8291 22.7787H70.4044H69.7194H69.4317C68.3631 22.7787 67.3493 22.3129 66.3766 21.3813C65.2395 20.2579 64.486 19.5044 64.0887 19.1071C62.6913 17.7508 61.4994 16.6822 60.4993 15.8602C60.3349 15.7232 60.2527 15.5725 60.2527 15.4081C60.2527 15.2437 60.3623 15.1204 60.5541 15.0382C62.5543 14.2573 64.7052 13.5997 66.9794 13.0791C67.6918 12.9284 68.0343 12.5448 68.0343 11.9557C68.0343 11.1748 67.5822 10.7775 66.6643 10.7775C66.5136 10.7775 66.3218 10.8049 66.1163 10.846C62.7735 11.6269 60.3349 12.5037 58.7731 13.449C58.0744 13.8737 57.7319 14.5724 57.7319 15.5314C57.7319 15.9972 57.8004 16.3671 57.9648 16.6548C58.2388 17.1343 59.1293 18.0385 60.65 19.34C62.0063 20.5045 62.6776 21.2991 62.6776 21.7101C62.6776 22.2718 62.1022 22.6006 60.9514 22.7239C60.7048 22.7513 59.7732 22.7513 58.1429 22.7513H57.8004H57.4031C56.3208 22.7513 55.7043 22.3129 55.5262 21.4361C55.4303 20.9429 55.3755 20.6415 55.3481 20.5182C55.1974 20.162 54.9234 19.9839 54.5124 19.9839C54.1425 19.9839 53.8411 20.2168 53.6356 20.6963C53.2931 21.4635 53.0876 21.9156 52.978 22.0389C52.2656 22.9431 50.375 23.3952 47.3199 23.3952H45.8403C43.7579 23.3952 42.3331 23.1623 41.5659 22.6691C41.0453 22.3403 40.785 21.8334 40.785 21.1621C40.785 20.9703 40.8261 20.6689 40.9083 20.2853C40.9905 19.888 41.0316 19.6003 41.0316 19.4085C41.0316 18.8194 40.7439 18.5317 40.1548 18.5317C39.6068 18.5317 39.1684 19.0112 38.8807 19.9702C38.6752 20.6415 38.5656 21.3402 38.5656 22.0663C38.5656 24.8611 40.9494 26.2585 45.717 26.2585C50.2928 26.2585 53.1424 25.5461 54.211 24.1076C54.6768 25.094 55.5947 25.5872 56.951 25.5872H57.088H57.7867H57.8141C59.8828 25.5872 61.335 25.4639 62.1844 25.2036C63.4859 24.8063 64.2805 23.9843 64.5819 22.7513C65.9245 24.6419 67.5959 25.5872 69.5824 25.5872H69.7057H70.3907H70.6647C72.0073 25.5872 73.0485 25.1899 73.8157 24.409C74.5829 23.6281 74.9528 22.5595 74.9528 21.2032C74.9391 19.203 74.4322 18.2029 73.4047 18.2029Z" fill="white"/>
<path d="M71.4181 27.0833C71.0482 27.0833 70.7057 27.2203 70.4454 27.4943C70.2673 27.6724 70.1577 27.8779 70.0892 28.0971C70.0207 27.8642 69.9111 27.6724 69.733 27.4943C69.459 27.2203 69.1439 27.0833 68.7603 27.0833C68.3767 27.0833 68.0479 27.2203 67.7739 27.4806C67.4999 27.7409 67.3629 28.0697 67.3629 28.4533C67.3629 28.8369 67.4999 29.1657 67.7739 29.4397C68.0479 29.7137 68.3767 29.8507 68.7603 29.8507C69.1439 29.8507 69.4727 29.7137 69.733 29.4397C69.9111 29.2616 70.007 29.0561 70.0755 28.8232C70.144 29.0561 70.2399 29.2616 70.418 29.4397C70.692 29.7137 71.0071 29.8507 71.3907 29.8507C71.7743 29.8507 72.1031 29.7137 72.3771 29.4397C72.6511 29.1657 72.7881 28.8369 72.7881 28.4533C72.7881 28.0697 72.6511 27.7409 72.3771 27.4806C72.1031 27.2203 71.8154 27.0833 71.4181 27.0833Z" fill="white"/>
<path d="M88.4062 20.15C87.913 19.3691 87.2006 18.9718 86.2827 18.9718C85.5155 18.9718 84.762 19.3828 83.9948 20.2048C83.8441 20.3829 83.4605 20.9035 82.8577 21.7666C82.5837 22.1639 82.3234 22.4379 82.0631 22.5612C81.8165 22.6982 81.4603 22.7667 80.9945 22.7667H80.6794C79.4053 22.7667 78.7888 21.9858 78.7888 20.4377V12.3136C78.7888 11.2313 78.3778 10.697 77.5558 10.697C77.1448 10.697 76.816 10.8751 76.5968 11.2176C76.405 11.519 76.3228 11.8889 76.3228 12.3136L76.5968 19.9993C76.6653 21.9173 76.8708 23.2051 77.1859 23.9038C77.7202 25.0409 78.7888 25.6026 80.3917 25.6026H80.515H81.2H81.2685C82.159 25.6026 82.9125 25.2875 83.529 24.671C84.2277 25.5067 85.1182 25.9177 86.2279 25.9177C87.091 25.9177 87.7897 25.5752 88.3103 24.8765C88.7898 24.2463 89.0227 23.5065 89.0227 22.616C89.0501 21.6296 88.8172 20.8076 88.4062 20.15ZM86.1731 23.575C85.8991 23.575 85.6251 23.4928 85.2963 23.3421C84.9264 23.1503 84.7483 22.9311 84.7483 22.6982C84.7483 22.3831 84.899 22.0817 85.2141 21.8077C85.5292 21.5337 85.8443 21.383 86.1457 21.383C86.4608 21.383 86.7074 21.5337 86.8992 21.8214C87.0499 22.068 87.1321 22.3557 87.1321 22.6982C87.1321 23.2873 86.8307 23.575 86.1731 23.575Z" fill="white"/>
<path d="M22.2625 32.5484C29.0419 32.5484 34.5377 27.0527 34.5377 20.2732C34.5377 13.4938 29.0419 7.99805 22.2625 7.99805C15.4831 7.99805 9.98734 13.4938 9.98734 20.2732C9.98734 27.0527 15.4831 32.5484 22.2625 32.5484Z" fill="#0091EA"/>
<path d="M29.7976 18.8209C29.7017 16.4919 27.7837 14.6561 25.441 14.6561C24.1395 14.6561 22.9613 15.2315 22.1667 16.1357C21.3721 15.2315 20.1939 14.6561 18.8924 14.6561C16.5908 14.6561 14.7002 16.4371 14.5358 18.6976C14.5358 18.7524 14.5221 18.8072 14.5221 18.862V23.794C14.5221 24.3968 15.0153 24.89 15.6181 24.89H15.6455C16.2483 24.89 16.7415 24.3968 16.7415 23.794V19.0264C16.7415 17.8345 17.7142 16.8618 18.9061 16.8618C20.098 16.8618 21.0707 17.8345 21.0707 19.0264V23.0542C21.0707 23.657 21.5639 24.1502 22.1667 24.1502H22.1941C22.7969 24.1502 23.2901 23.657 23.2901 23.0542V19.0264C23.2901 17.8345 24.2628 16.8618 25.4547 16.8618C26.6466 16.8618 27.6193 17.8345 27.6193 19.0264V23.8077C27.6193 24.4105 28.0988 24.89 28.7016 24.89H28.729C29.3318 24.89 29.8113 24.4105 29.8113 23.8077V18.9305C29.7976 18.8894 29.7976 18.8483 29.7976 18.8209Z" fill="white"/>
<path d="M25.6602 25.2995C25.6054 25.2173 25.4547 25.3817 25.4547 25.3817C24.8519 26.0393 23.5915 26.464 22.29 26.464C20.9885 26.464 19.7418 26.0393 19.1253 25.3817C19.1253 25.3817 18.9609 25.2173 18.9198 25.2995C18.8513 25.3954 18.9472 25.5461 18.9472 25.5461C19.7281 26.6695 20.9063 27.1627 22.29 27.1627C23.6737 27.1627 24.8519 26.6558 25.6328 25.5461C25.6191 25.5598 25.7287 25.4091 25.6602 25.2995Z" fill="white"/>
</svg>
